<svg width="20" height="20" viewBox="0 0 20 20" fill="none" xmlns="http://www.w3.org/2000/svg">
<path d="M10 1.25C11.1491 1.25 12.2869 1.47633 13.3485 1.91605C14.4101 2.35578 15.3747 3.0003 16.1872 3.81282C16.9997 4.62533 17.6442 5.58992 18.0839 6.65152C18.5237 7.71312 18.75 8.85093 18.75 10C18.75 11.1491 18.5237 12.2869 18.0839 13.3485C17.6442 14.4101 16.9997 15.3747 16.1872 16.1872C15.3747 16.9997 14.4101 17.6442 13.3485 18.0839C12.2869 18.5237 11.1491 18.75 10 18.75V1.25ZM10 0C7.34784 0 4.8043 1.05357 2.92893 2.92893C1.05357 4.8043 0 7.34784 0 10C0 12.6522 1.05357 15.1957 2.92893 17.0711C4.8043 18.9464 7.34784 20 10 20C12.6522 20 15.1957 18.9464 17.0711 17.0711C18.9464 15.1957 20 12.6522 20 10C20 7.34784 18.9464 4.8043 17.0711 2.92893C15.1957 1.05357 12.6522 0 10 0Z" fill={theme === Theme.LIGHT ? "#77B0FF" : "#0171C2"}/>
</svg>
