<svg width="18" height="18" viewBox="0 0 18 18" fill="none" xmlns="http://www.w3.org/2000/svg">
<path d="M15.449 13.2607C15.0205 13.2605 14.5991 13.1525 14.2234 12.9466C13.8477 12.7407 13.5299 12.4435 13.2993 12.0824C13.0689 12.4436 12.7512 12.7409 12.3755 12.9468C11.9998 13.1528 11.5783 13.2607 11.1498 13.2607C10.7214 13.2607 10.2999 13.1528 9.92417 12.9468C9.54848 12.7409 9.23075 12.4436 9.00033 12.0824C8.7699 12.4436 8.45217 12.7409 8.07648 12.9468C7.70079 13.1528 7.27926 13.2607 6.85082 13.2607C6.42238 13.2607 6.00085 13.1528 5.62516 12.9468C5.24947 12.7409 4.93174 12.4436 4.70131 12.0824C4.40444 12.5476 3.9647 12.9039 3.44809 13.098C2.93148 13.292 2.36586 13.3133 1.83614 13.1585C1.30642 13.0038 0.841172 12.6815 0.510218 12.2399C0.179264 11.7983 0.000461845 11.2613 0.000648645 10.7095C0.000648645 10.603 0.0429652 10.5008 0.118289 10.4255C0.193613 10.3502 0.295773 10.3079 0.402297 10.3079C0.508821 10.3079 0.610981 10.3502 0.686305 10.4255C0.761629 10.5008 0.803945 10.603 0.803945 10.7095C0.801296 10.9407 0.844548 11.1701 0.931198 11.3845C1.01785 11.5989 1.14617 11.794 1.30874 11.9584C1.47131 12.1228 1.66488 12.2534 1.87826 12.3425C2.09164 12.4316 2.32057 12.4774 2.5518 12.4774C2.78304 12.4774 3.01197 12.4316 3.22535 12.3425C3.43873 12.2534 3.6323 12.1228 3.79487 11.9584C3.95744 11.794 4.08576 11.5989 4.17241 11.3845C4.25906 11.1701 4.30231 10.9407 4.29966 10.7095C4.29966 10.603 4.34198 10.5008 4.4173 10.4255C4.49263 10.3502 4.59479 10.3079 4.70131 10.3079C4.80784 10.3079 4.91 10.3502 4.98532 10.4255C5.06064 10.5008 5.10296 10.603 5.10296 10.7095C5.10031 10.9407 5.14356 11.1701 5.23021 11.3845C5.31686 11.5989 5.44519 11.794 5.60775 11.9584C5.77032 12.1228 5.9639 12.2534 6.17727 12.3425C6.39065 12.4316 6.61959 12.4774 6.85082 12.4774C7.08205 12.4774 7.31099 12.4316 7.52436 12.3425C7.73774 12.2534 7.93132 12.1228 8.09388 11.9584C8.25645 11.794 8.38478 11.5989 8.47143 11.3845C8.55807 11.1701 8.60133 10.9407 8.59868 10.7095C8.59868 10.603 8.64099 10.5008 8.71632 10.4255C8.79164 10.3502 8.8938 10.3079 9.00033 10.3079C9.10685 10.3079 9.20901 10.3502 9.28434 10.4255C9.35966 10.5008 9.40197 10.603 9.40197 10.7095C9.39932 10.9407 9.44258 11.1701 9.52923 11.3845C9.61588 11.5989 9.7442 11.794 9.90677 11.9584C10.0693 12.1228 10.2629 12.2534 10.4763 12.3425C10.6897 12.4316 10.9186 12.4774 11.1498 12.4774C11.3811 12.4774 11.61 12.4316 11.8234 12.3425C12.0368 12.2534 12.2303 12.1228 12.3929 11.9584C12.5555 11.794 12.6838 11.5989 12.7704 11.3845C12.8571 11.1701 12.9003 10.9407 12.8977 10.7095C12.8977 10.603 12.94 10.5008 13.0153 10.4255C13.0907 10.3502 13.1928 10.3079 13.2993 10.3079C13.4059 10.3079 13.508 10.3502 13.5833 10.4255C13.6587 10.5008 13.701 10.603 13.701 10.7095C13.6983 10.9407 13.7416 11.1701 13.8282 11.3845C13.9149 11.5989 14.0432 11.794 14.2058 11.9584C14.3683 12.1228 14.5619 12.2534 14.7753 12.3425C14.9887 12.4316 15.2176 12.4774 15.4488 12.4774C15.6801 12.4774 15.909 12.4316 16.1224 12.3425C16.3358 12.2534 16.5293 12.1228 16.6919 11.9584C16.8545 11.794 16.9828 11.5989 17.0695 11.3845C17.1561 11.1701 17.1994 10.9407 17.1967 10.7095C17.1967 10.603 17.239 10.5008 17.3143 10.4255C17.3897 10.3502 17.4918 10.3079 17.5984 10.3079C17.7049 10.3079 17.807 10.3502 17.8824 10.4255C17.9577 10.5008 18 10.603 18 10.7095C17.9993 11.3859 17.7303 12.0343 17.252 12.5126C16.7738 12.9908 16.1253 13.2599 15.449 13.2607Z" fill="#AFD1FD"/>
<path d="M15.449 17.999C15.0206 17.9988 14.5991 17.8908 14.2234 17.6848C13.8477 17.4788 13.5299 17.1816 13.2994 16.8205C13.069 17.1817 12.7513 17.4791 12.3756 17.6851C11.9999 17.891 11.5783 17.999 11.1499 17.999C10.7214 17.999 10.2999 17.891 9.92417 17.6851C9.54847 17.4791 9.23075 17.1817 9.00037 16.8205C8.76998 17.1817 8.45226 17.4791 8.07657 17.6851C7.70087 17.891 7.27932 17.999 6.85086 17.999C6.4224 17.999 6.00084 17.891 5.62515 17.6851C5.24946 17.4791 4.93174 17.1817 4.70135 16.8205C4.40465 17.2859 3.96496 17.6425 3.4483 17.8368C2.93165 18.0311 2.36591 18.0525 1.83603 17.8979C1.30616 17.7432 0.840751 17.4209 0.509689 16.9793C0.178626 16.5376 -0.000221606 16.0005 2.06075e-07 15.4485C2.06075e-07 15.342 0.0423167 15.2398 0.11764 15.1645C0.192964 15.0892 0.295125 15.0469 0.401649 15.0469C0.508172 15.0469 0.610333 15.0892 0.685657 15.1645C0.76098 15.2398 0.803297 15.342 0.803297 15.4485C0.800647 15.6797 0.8439 15.9092 0.93055 16.1235C1.0172 16.3379 1.14552 16.533 1.30809 16.6974C1.47066 16.8618 1.66423 16.9924 1.87761 17.0815C2.09099 17.1706 2.31992 17.2164 2.55116 17.2164C2.78239 17.2164 3.01132 17.1706 3.2247 17.0815C3.43808 16.9924 3.63165 16.8618 3.79422 16.6974C3.95679 16.533 4.08511 16.3379 4.17176 16.1235C4.25841 15.9092 4.30166 15.6797 4.29901 15.4485C4.29901 15.342 4.34133 15.2398 4.41665 15.1645C4.49198 15.0892 4.59414 15.0469 4.70066 15.0469C4.80719 15.0469 4.90935 15.0892 4.98467 15.1645C5.05999 15.2398 5.10231 15.342 5.10231 15.4485C5.09966 15.6797 5.14291 15.9092 5.22956 16.1235C5.31621 16.3379 5.44454 16.533 5.60711 16.6974C5.76967 16.8618 5.96325 16.9924 6.17663 17.0815C6.39 17.1706 6.61894 17.2164 6.85017 17.2164C7.0814 17.2164 7.31034 17.1706 7.52371 17.0815C7.73709 16.9924 7.93067 16.8618 8.09324 16.6974C8.2558 16.533 8.38413 16.3379 8.47078 16.1235C8.55743 15.9092 8.60068 15.6797 8.59803 15.4485C8.59803 15.342 8.64035 15.2398 8.71567 15.1645C8.79099 15.0892 8.89315 15.0469 8.99968 15.0469C9.1062 15.0469 9.20836 15.0892 9.28369 15.1645C9.35901 15.2398 9.40133 15.342 9.40133 15.4485C9.39868 15.6797 9.44193 15.9092 9.52858 16.1235C9.61523 16.3379 9.74355 16.533 9.90612 16.6974C10.0687 16.8618 10.2623 16.9924 10.4756 17.0815C10.689 17.1706 10.918 17.2164 11.1492 17.2164C11.3804 17.2164 11.6094 17.1706 11.8227 17.0815C12.0361 16.9924 12.2297 16.8618 12.3923 16.6974C12.5548 16.533 12.6831 16.3379 12.7698 16.1235C12.8564 15.9092 12.8997 15.6797 12.897 15.4485C12.897 15.342 12.9394 15.2398 13.0147 15.1645C13.09 15.0892 13.1922 15.0469 13.2987 15.0469C13.4052 15.0469 13.5074 15.0892 13.5827 15.1645C13.658 15.2398 13.7003 15.342 13.7003 15.4485C13.6977 15.6797 13.7409 15.9092 13.8276 16.1235C13.9142 16.3379 14.0426 16.533 14.2051 16.6974C14.3677 16.8618 14.5613 16.9924 14.7747 17.0815C14.988 17.1706 15.217 17.2164 15.4482 17.2164C15.6794 17.2164 15.9084 17.1706 16.1217 17.0815C16.3351 16.9924 16.5287 16.8618 16.6913 16.6974C16.8538 16.533 16.9822 16.3379 17.0688 16.1235C17.1555 15.9092 17.1987 15.6797 17.1961 15.4485C17.1961 15.342 17.2384 15.2398 17.3137 15.1645C17.389 15.0892 17.4912 15.0469 17.5977 15.0469C17.7042 15.0469 17.8064 15.0892 17.8817 15.1645C17.957 15.2398 17.9994 15.342 17.9994 15.4485C17.9984 16.1246 17.7295 16.7728 17.2514 17.2509C16.7733 17.729 16.1251 17.998 15.449 17.999Z" fill="#9AA1EB"/>
<path d="M10.8 1.63382L9.28357 0.117725C9.24631 0.0804052 9.20205 0.0507986 9.15334 0.0305982C9.10462 0.0103977 9.0524 0 8.99966 0C8.94692 0 8.8947 0.0103977 8.84598 0.0305982C8.79727 0.0507986 8.75301 0.0804052 8.71575 0.117725L7.19936 1.63382C7.12403 1.70915 7.08171 1.81131 7.08171 1.91783C7.08171 2.02436 7.12403 2.12652 7.19936 2.20184C7.27468 2.27716 7.37685 2.31948 7.48338 2.31948C7.58991 2.31948 7.69208 2.27716 7.7674 2.20184L8.59801 1.37127V5.37472C8.59801 5.48124 8.64033 5.58339 8.71565 5.65871C8.79097 5.73403 8.89314 5.77635 8.99966 5.77635C9.10618 5.77635 9.20834 5.73403 9.28367 5.65871C9.35899 5.58339 9.40131 5.48124 9.40131 5.37472V1.37127L10.2319 2.20184C10.2692 2.23914 10.3135 2.26872 10.3622 2.28891C10.411 2.30909 10.4632 2.31948 10.5159 2.31948C10.5687 2.31948 10.6209 2.30909 10.6697 2.28891C10.7184 2.26872 10.7627 2.23914 10.8 2.20184C10.8373 2.16454 10.8668 2.12027 10.887 2.07154C10.9072 2.0228 10.9176 1.97058 10.9176 1.91783C10.9176 1.86509 10.9072 1.81286 10.887 1.76413C10.8668 1.7154 10.8373 1.67112 10.8 1.63382Z" fill="#BFFDFF"/>
<path d="M2.90835 2.86396C2.87106 2.82663 2.82679 2.79702 2.77805 2.77682C2.72932 2.75661 2.67708 2.74622 2.62432 2.74622C2.57157 2.74622 2.51933 2.75661 2.47059 2.77682C2.42186 2.79702 2.37758 2.82663 2.3403 2.86396L0.824135 4.38006C0.748808 4.45538 0.70649 4.55754 0.70649 4.66407C0.70649 4.77059 0.748808 4.87275 0.824135 4.94808C0.899463 5.0234 1.00163 5.06572 1.10816 5.06572C1.21469 5.06572 1.31685 5.0234 1.39218 4.94808L2.22279 4.11751V8.12095C2.22279 8.22747 2.26511 8.32963 2.34043 8.40495C2.41575 8.48027 2.51791 8.52258 2.62444 8.52258C2.73096 8.52258 2.83312 8.48027 2.90845 8.40495C2.98377 8.32963 3.02609 8.22747 3.02609 8.12095V4.11751L3.8567 4.94808C3.93246 5.02122 4.03393 5.06168 4.13924 5.06075C4.24455 5.05981 4.34528 5.01755 4.41973 4.94307C4.49419 4.86859 4.53641 4.76785 4.5373 4.66254C4.53819 4.55723 4.49769 4.45579 4.42451 4.38006L2.90835 2.86396Z" fill="#BFFDFF"/>
<path d="M17.1751 4.38006L15.6589 2.86396C15.6217 2.82663 15.5774 2.79702 15.5286 2.77682C15.4799 2.75661 15.4277 2.74622 15.3749 2.74622C15.3222 2.74622 15.2699 2.75661 15.2212 2.77682C15.1724 2.79702 15.1282 2.82663 15.0909 2.86396L13.5747 4.38006C13.5364 4.4171 13.5058 4.46141 13.4847 4.51041C13.4636 4.5594 13.4525 4.6121 13.4521 4.66543C13.4516 4.71876 13.4617 4.77165 13.4819 4.82101C13.5021 4.87037 13.5319 4.91522 13.5696 4.95294C13.6073 4.99066 13.6522 5.02049 13.7015 5.04069C13.7509 5.0609 13.8038 5.07107 13.8571 5.07062C13.9104 5.07016 13.9631 5.05909 14.0122 5.03806C14.0612 5.01702 14.1055 4.98643 14.1425 4.94808L14.9732 4.11751V8.12095C14.9732 8.22747 15.0155 8.32963 15.0908 8.40495C15.1661 8.48027 15.2683 8.52258 15.3748 8.52258C15.4813 8.52258 15.5835 8.48027 15.6588 8.40495C15.7341 8.32963 15.7764 8.22747 15.7764 8.12095V4.11751L16.6071 4.94808C16.6824 5.0234 16.7846 5.06572 16.8911 5.06572C16.9976 5.06572 17.0998 5.0234 17.1751 4.94808C17.2504 4.87275 17.2927 4.77059 17.2927 4.66407C17.2927 4.55754 17.2504 4.45538 17.1751 4.38006Z" fill="#BFFDFF"/>
<path d="M6.83372 6.24545C6.78097 6.24542 6.72873 6.25579 6.67998 6.27596C6.63124 6.29614 6.58695 6.32572 6.54965 6.36302C6.51235 6.40032 6.48276 6.44461 6.46259 6.49335C6.44241 6.54209 6.43205 6.59433 6.43208 6.64708V10.0323C6.43208 10.1388 6.47439 10.2409 6.54972 10.3162C6.62504 10.3916 6.7272 10.4339 6.83372 10.4339C6.94025 10.4339 7.04241 10.3916 7.11773 10.3162C7.19306 10.2409 7.23537 10.1388 7.23537 10.0323V6.64731C7.2354 6.59455 7.22504 6.5423 7.20487 6.49355C7.18469 6.44479 7.15511 6.40049 7.11781 6.36317C7.08051 6.32585 7.03623 6.29624 6.98748 6.27605C6.93874 6.25585 6.88649 6.24545 6.83372 6.24545Z" fill="#BFFDFF"/>
<path d="M11.1658 6.24545C11.113 6.24542 11.0608 6.25579 11.012 6.27596C10.9633 6.29614 10.919 6.32572 10.8817 6.36302C10.8444 6.40032 10.8148 6.44461 10.7946 6.49335C10.7745 6.54209 10.7641 6.59433 10.7641 6.64708V10.0323C10.7641 10.1388 10.8065 10.2409 10.8818 10.3162C10.9571 10.3916 11.0593 10.4339 11.1658 10.4339C11.2723 10.4339 11.3745 10.3916 11.4498 10.3162C11.5251 10.2409 11.5674 10.1388 11.5674 10.0323L11.5369 6.49355C11.537 6.44078 11.5571 6.5423 11.5369 6.49355C11.5168 6.44479 11.4872 6.40049 11.4499 6.36317C11.4126 6.32585 11.3683 6.29624 11.3195 6.27605C11.2708 6.25585 11.2186 6.24545 11.1658 6.24545Z" fill="#BFFDFF"/>
</svg>
