<svg width="25" height="25" viewBox="0 0 25 25" fill="none" xmlns="http://www.w3.org/2000/svg">
<g opacity="0.88">
<path d="M16.9786 15.4588C16.6811 15.4587 16.3884 15.3837 16.1275 15.2407C15.8666 15.0977 15.646 14.8913 15.4859 14.6406C15.3258 14.8914 15.1052 15.0978 14.8443 15.2408C14.5834 15.3839 14.2907 15.4588 13.9931 15.4588C13.6956 15.4588 13.4029 15.3839 13.142 15.2408C12.8811 15.0978 12.6604 14.8914 12.5004 14.6406C12.3404 14.8914 12.1198 15.0978 11.8589 15.2408C11.598 15.3839 11.3052 15.4588 11.0077 15.4588C10.7102 15.4588 10.4175 15.3839 10.1566 15.2408C9.89566 15.0978 9.67502 14.8914 9.515 14.6406C9.30884 14.9636 9.00346 15.2111 8.6447 15.3458C8.28595 15.4806 7.89316 15.4953 7.5253 15.3879C7.15744 15.2804 6.83435 15.0566 6.60452 14.7499C6.37469 14.4433 6.25052 14.0704 6.25065 13.6872C6.25065 13.6132 6.28004 13.5422 6.33234 13.4899C6.38465 13.4376 6.4556 13.4082 6.52957 13.4082C6.60355 13.4082 6.67449 13.4376 6.7268 13.4899C6.77911 13.5422 6.80849 13.6132 6.80849 13.6872C6.80665 13.8477 6.83669 14.007 6.89686 14.1559C6.95704 14.3048 7.04615 14.4402 7.15904 14.5544C7.27194 14.6686 7.40637 14.7593 7.55455 14.8212C7.70272 14.883 7.86171 14.9149 8.02228 14.9149C8.18286 14.9149 8.34185 14.883 8.49002 14.8212C8.6382 14.7593 8.77263 14.6686 8.88552 14.5544C8.99842 14.4402 9.08753 14.3048 9.1477 14.1559C9.20788 14.007 9.23792 13.8477 9.23608 13.6872C9.23608 13.6132 9.26546 13.5422 9.31777 13.4899C9.37008 13.4376 9.44102 13.4082 9.515 13.4082C9.58897 13.4082 9.65992 13.4376 9.71223 13.4899C9.76453 13.5422 9.79392 13.6132 9.79392 13.6872C9.79208 13.8477 9.82212 14.007 9.88229 14.1559C9.94246 14.3048 10.0316 14.4402 10.1445 14.5544C10.2574 14.6686 10.3918 14.7593 10.54 14.8212C10.6882 14.883 10.8471 14.9149 11.0077 14.9149C11.1683 14.9149 11.3273 14.883 11.4754 14.8212C11.6236 14.7593 11.7581 14.6686 11.871 14.5544C11.9838 14.4402 12.073 14.3048 12.1331 14.1559C12.1933 14.007 12.2233 13.8477 12.2215 13.6872C12.2215 13.6132 12.2509 13.5422 12.3032 13.4899C12.3555 13.4376 12.4264 13.4082 12.5004 13.4082C12.5744 13.4082 12.6453 13.4376 12.6977 13.4899C12.75 13.5422 12.7793 13.6132 12.7793 13.6872C12.7775 13.8477 12.8075 14.007 12.8677 14.1559C12.9279 14.3048 13.017 14.4402 13.1299 14.5544C13.2428 14.6686 13.3772 14.7593 13.5254 14.8212C13.6736 14.883 13.8326 14.9149 13.9931 14.9149C14.1537 14.9149 14.3127 14.883 14.4609 14.8212C14.6091 14.7593 14.7435 14.6686 14.8564 14.5544C14.9693 14.4402 15.0584 14.3048 15.1186 14.1559C15.1787 14.007 15.2088 13.8477 15.2069 13.6872C15.2069 13.6132 15.2363 13.5422 15.2886 13.4899C15.3409 13.4376 15.4119 13.4082 15.4859 13.4082C15.5598 13.4082 15.6308 13.4376 15.6831 13.4899C15.7354 13.5422 15.7648 13.6132 15.7648 13.6872C15.7629 13.8477 15.793 14.007 15.8531 14.1559C15.9133 14.3048 16.0024 14.4402 16.1153 14.5544C16.2282 14.6686 16.3626 14.7593 16.5108 14.8212C16.659 14.883 16.818 14.9149 16.9786 14.9149C17.1391 14.9149 17.2981 14.883 17.4463 14.8212C17.5945 14.7593 17.7289 14.6686 17.8418 14.5544C17.9547 14.4402 18.0438 14.3048 18.104 14.1559C18.1642 14.007 18.1942 13.8477 18.1924 13.6872C18.1924 13.6132 18.2217 13.5422 18.274 13.4899C18.3264 13.4376 18.3973 13.4082 18.4713 13.4082C18.5453 13.4082 18.6162 13.4376 18.6685 13.4899C18.7208 13.5422 18.7502 13.6132 18.7502 13.6872C18.7497 14.1568 18.5629 14.6071 18.2308 14.9393C17.8987 15.2714 17.4483 15.4582 16.9786 15.4588V15.4588Z" fill="#AFD1FD"/>
<path d="M16.9785 18.7493C16.6809 18.7492 16.3882 18.6741 16.1273 18.5311C15.8665 18.3881 15.6458 18.1817 15.4857 17.9309C15.3257 18.1817 15.1051 18.3882 14.8442 18.5313C14.5833 18.6743 14.2905 18.7493 13.993 18.7493C13.6954 18.7493 13.4027 18.6743 13.1418 18.5313C12.8809 18.3882 12.6602 18.1817 12.5003 17.9309C12.3403 18.1817 12.1196 18.3882 11.8587 18.5313C11.5978 18.6743 11.3051 18.7493 11.0075 18.7493C10.71 18.7493 10.4173 18.6743 10.1564 18.5313C9.89546 18.3882 9.67482 18.1817 9.51483 17.9309C9.30878 18.2541 9.00344 18.5018 8.64465 18.6367C8.28586 18.7716 7.89299 18.7865 7.52502 18.6791C7.15706 18.5717 6.83385 18.3478 6.60395 18.0411C6.37405 17.7344 6.24985 17.3614 6.25 16.9781C6.25 16.9042 6.27939 16.8332 6.33169 16.7809C6.384 16.7286 6.45495 16.6992 6.52892 16.6992C6.6029 16.6992 6.67384 16.7286 6.72615 16.7809C6.77846 16.8332 6.80785 16.9042 6.80785 16.9781C6.80601 17.1387 6.83604 17.298 6.89621 17.4469C6.95639 17.5958 7.0455 17.7312 7.1584 17.8454C7.27129 17.9596 7.40572 18.0502 7.5539 18.1121C7.70208 18.174 7.86106 18.2059 8.02164 18.2059C8.18221 18.2059 8.3412 18.174 8.48937 18.1121C8.63755 18.0502 8.77198 17.9596 8.88488 17.8454C8.99777 17.7312 9.08688 17.5958 9.14706 17.4469C9.20723 17.298 9.23727 17.1387 9.23543 16.9781C9.23543 16.9042 9.26481 16.8332 9.31712 16.7809C9.36943 16.7286 9.44037 16.6992 9.51435 16.6992C9.58832 16.6992 9.65927 16.7286 9.71158 16.7809C9.76388 16.8332 9.79327 16.9042 9.79327 16.9781C9.79143 17.1387 9.82147 17.298 9.88164 17.4469C9.94181 17.5958 10.0309 17.7312 10.1438 17.8454C10.2567 17.9596 10.3911 18.0502 10.5393 18.1121C10.6875 18.174 10.8465 18.2059 11.0071 18.2059C11.1676 18.2059 11.3266 18.174 11.4748 18.1121C11.623 18.0502 11.7574 17.9596 11.8703 17.8454C11.9832 17.7312 12.0723 17.5958 12.1325 17.4469C12.1927 17.298 12.2227 17.1387 12.2209 16.9781C12.2209 16.9042 12.2502 16.8332 12.3025 16.7809C12.3549 16.7286 12.4258 16.6992 12.4998 16.6992C12.5738 16.6992 12.6447 16.7286 12.697 16.7809C12.7493 16.8332 12.7787 16.9042 12.7787 16.9781C12.7769 17.1387 12.8069 17.298 12.8671 17.4469C12.9272 17.5958 13.0164 17.7312 13.1292 17.8454C13.2421 17.9596 13.3766 18.0502 13.5248 18.1121C13.6729 18.174 13.8319 18.2059 13.9925 18.2059C14.1531 18.2059 14.3121 18.174 14.4602 18.1121C14.6084 18.0502 14.7428 17.9596 14.8557 17.8454C14.9686 17.7312 15.0577 17.5958 15.1179 17.4469C15.1781 17.298 15.2081 17.1387 15.2063 16.9781C15.2063 16.9042 15.2357 16.8332 15.288 16.7809C15.3403 16.7286 15.4112 16.6992 15.4852 16.6992C15.5592 16.6992 15.6301 16.7286 15.6824 16.7809C15.7347 16.8332 15.7641 16.9042 15.7641 16.9781C15.7623 17.1387 15.7923 17.298 15.8525 17.4469C15.9127 17.5958 16.0018 17.7312 16.1147 17.8454C16.2276 17.9596 16.362 18.0502 16.5102 18.1121C16.6584 18.174 16.8173 18.2059 16.9779 18.2059C17.1385 18.2059 17.2975 18.174 17.4457 18.1121C17.5938 18.0502 17.7283 17.9596 17.8412 17.8454C17.954 17.7312 18.0432 17.5958 18.1033 17.4469C18.1635 17.298 18.1935 17.1387 18.1917 16.9781C18.1917 16.9042 18.2211 16.8332 18.2734 16.7809C18.3257 16.7286 18.3967 16.6992 18.4706 16.6992C18.5446 16.6992 18.6155 16.7286 18.6679 16.7809C18.7202 16.8332 18.7496 16.9042 18.7496 16.9781C18.7489 17.4476 18.5621 17.8978 18.2301 18.2298C17.8981 18.5618 17.448 18.7486 16.9785 18.7493Z" fill="#9AA1EB"/>
<path d="M13.75 7.3846L12.6969 6.33175C12.671 6.30584 12.6403 6.28528 12.6065 6.27125C12.5727 6.25722 12.5364 6.25 12.4998 6.25C12.4631 6.25 12.4269 6.25722 12.393 6.27125C12.3592 6.28528 12.3285 6.30584 12.3026 6.33175L11.2496 7.3846C11.1972 7.43691 11.1679 7.50785 11.1679 7.58183C11.1679 7.6558 11.1972 7.72675 11.2496 7.77906C11.3019 7.83136 11.3728 7.86075 11.4468 7.86075C11.5208 7.86075 11.5917 7.83136 11.644 7.77906L12.2208 7.20227V9.98244C12.2208 10.0564 12.2502 10.1274 12.3025 10.1797C12.3548 10.232 12.4258 10.2614 12.4998 10.2614C12.5737 10.2614 12.6447 10.232 12.697 10.1797C12.7493 10.1274 12.7787 10.0564 12.7787 9.98244V7.20227L13.3555 7.77906C13.3814 7.80496 13.4121 7.8255 13.446 7.83952C13.4798 7.85354 13.5161 7.86075 13.5527 7.86075C13.5894 7.86075 13.6256 7.85354 13.6595 7.83952C13.6933 7.8255 13.7241 7.80496 13.75 7.77906C13.7759 7.75316 13.7964 7.72241 13.8104 7.68857C13.8245 7.65473 13.8317 7.61846 13.8317 7.58183C13.8317 7.5452 13.8245 7.50893 13.8104 7.47509C13.7964 7.44125 13.7759 7.4105 13.75 7.3846V7.3846Z" fill="#BFFDFF"/>
<path d="M8.26968 8.23886C8.24379 8.21293 8.21304 8.19237 8.1792 8.17834C8.14535 8.16431 8.10907 8.15709 8.07244 8.15709C8.0358 8.15709 7.99952 8.16431 7.96568 8.17834C7.93184 8.19237 7.90109 8.21293 7.8752 8.23886L6.82231 9.2917C6.77 9.34401 6.74061 9.41495 6.74061 9.48893C6.74061 9.56291 6.77 9.63385 6.82231 9.68616C6.87462 9.73847 6.94557 9.76785 7.01954 9.76785C7.09352 9.76785 7.16447 9.73847 7.21678 9.68616L7.79359 9.10937V11.8895C7.79359 11.9635 7.82298 12.0345 7.87529 12.0868C7.9276 12.1391 7.99854 12.1685 8.07252 12.1685C8.14649 12.1685 8.21744 12.1391 8.26975 12.0868C8.32205 12.0345 8.35144 11.9635 8.35144 11.8895V9.10937L8.92825 9.68616C8.98087 9.73695 9.05133 9.76505 9.12446 9.7644C9.19759 9.76375 9.26755 9.73441 9.31925 9.68268C9.37095 9.63096 9.40027 9.561 9.40089 9.48787C9.40151 9.41474 9.37339 9.34429 9.32257 9.2917L8.26968 8.23886Z" fill="#BFFDFF"/>
<path d="M18.1772 9.2917L17.1243 8.23886C17.0984 8.21293 17.0676 8.19237 17.0338 8.17834C16.9999 8.16431 16.9637 8.15709 16.927 8.15709C16.8904 8.15709 16.8541 8.16431 16.8203 8.17834C16.7864 8.19237 16.7557 8.21293 16.7298 8.23886L15.6769 9.2917C15.6502 9.31742 15.629 9.3482 15.6144 9.38222C15.5997 9.41625 15.592 9.45284 15.5917 9.48988C15.5914 9.52691 15.5984 9.56364 15.6124 9.59792C15.6265 9.6322 15.6472 9.66334 15.6734 9.68954C15.6995 9.71573 15.7307 9.73644 15.765 9.75048C15.7992 9.76451 15.836 9.77157 15.873 9.77126C15.91 9.77094 15.9466 9.76326 15.9807 9.74864C16.0147 9.73403 16.0455 9.71279 16.0712 9.68616L16.648 9.10937V11.8895C16.648 11.9635 16.6774 12.0345 16.7297 12.0868C16.782 12.1391 16.853 12.1685 16.9269 12.1685C17.0009 12.1685 17.0719 12.1391 17.1242 12.0868C17.1765 12.0345 17.2059 11.9635 17.2059 11.8895V9.10937L17.7827 9.68616C17.835 9.73847 17.9059 9.76785 17.9799 9.76785C18.0539 9.76785 18.1248 9.73847 18.1772 9.68616C18.2295 9.63385 18.2589 9.56291 18.2589 9.48893C18.2589 9.41495 18.2295 9.34401 18.1772 9.2917V9.2917Z" fill="#BFFDFF"/>
<path d="M10.9956 10.5871C10.959 10.5871 10.9227 10.5943 10.8889 10.6083C10.855 10.6223 10.8243 10.6429 10.7984 10.6688C10.7725 10.6947 10.7519 10.7254 10.7379 10.7593C10.7239 10.7931 10.7167 10.8294 10.7167 10.866V13.2168C10.7167 13.2908 10.7461 13.3617 10.7984 13.4141C10.8507 13.4664 10.9217 13.4957 10.9956 13.4957C11.0696 13.4957 11.1406 13.4664 11.1929 13.4141C11.2452 13.3617 11.2746 13.2908 11.2746 13.2168V10.8662C11.2746 10.8295 11.2674 10.7933 11.2534 10.7594C11.2394 10.7255 11.2188 10.6948 11.1929 10.6689C11.167 10.6429 11.1363 10.6224 11.1024 10.6084C11.0686 10.5943 11.0323 10.5871 10.9956 10.5871V10.5871Z" fill="#BFFDFF"/>
<path d="M14.004 10.5871C13.9674 10.5871 13.9311 10.5943 13.8973 10.6083C13.8634 10.6223 13.8326 10.6429 13.8067 10.6688C13.7808 10.6947 13.7603 10.7254 13.7463 10.7593C13.7323 10.7931 13.7251 10.8294 13.7251 10.866V13.2168C13.7251 13.2908 13.7545 13.3617 13.8068 13.4141C13.8591 13.4664 13.93 13.4957 14.004 13.4957C14.078 13.4957 14.1489 13.4664 14.2012 13.4141C14.2536 13.3617 14.2829 13.2908 14.2829 13.2168L14.2618 10.7594C14.2758 10.7933 14.2618 10.7228 14.2618 10.7594C14.2477 10.7255 14.2272 10.6948 14.2013 10.6689C14.1754 10.6429 14.1446 10.6224 14.1108 10.6084C14.0769 10.5943 14.0407 10.5871 14.004 10.5871Z" fill="#BFFDFF"/>
</g>
</svg>
