<svg width="24" height="24" viewBox="0 0 24 24" fill="none" xmlns="http://www.w3.org/2000/svg">
<path d="M15 3H20.25V4.5H15V3ZM15 7.5H22.5V9H15V7.5ZM15 12H20.25V13.5H15V12ZM9 17.25C9 17.8467 8.76295 18.419 8.34099 18.841C7.91903 19.2629 7.34674 19.5 6.75 19.5C6.15326 19.5 5.58097 19.2629 5.15901 18.841C4.73705 18.419 4.5 17.8467 4.5 17.25H9Z" fill="#77B0FF"/>
<path d="M22.5 16.5H11.94C11.7806 15.3997 11.2764 14.3783 10.5 13.5825V5.25C10.5 4.25544 10.1049 3.30161 9.40165 2.59835C8.69839 1.89509 7.74456 1.5 6.75 1.5C5.75544 1.5 4.80161 1.89509 4.09835 2.59835C3.39509 3.30161 3 4.25544 3 5.25V13.5825C2.41985 14.1745 1.98823 14.8956 1.74052 15.6866C1.4928 16.4776 1.43603 17.316 1.57486 18.1332C1.7137 18.9503 2.04418 19.723 2.53923 20.3878C3.03428 21.0526 3.67982 21.5906 4.42293 21.9578C5.16604 22.325 5.98558 22.5109 6.81439 22.5003C7.6432 22.4896 8.4577 22.2827 9.19113 21.8966C9.92456 21.5104 10.5561 20.956 11.0339 20.2787C11.5117 19.6014 11.8222 18.8205 11.94 18H22.5V16.5ZM6.75 21C5.99081 21.0011 5.24921 20.7714 4.62354 20.3414C3.99787 19.9114 3.51768 19.3013 3.24664 18.5922C2.9756 17.883 2.92651 17.1082 3.10588 16.3705C3.28525 15.6328 3.68461 14.967 4.251 14.4615L4.5 14.2372V5.25C4.5 4.65326 4.73705 4.08097 5.15901 3.65901C5.58097 3.23705 6.15326 3 6.75 3C7.34674 3 7.91903 3.23705 8.34099 3.65901C8.76295 4.08097 9 4.65326 9 5.25V14.2372L9.249 14.4615C9.8154 14.967 10.2148 15.6328 10.3941 16.3705C10.5735 17.1082 10.5244 17.883 10.2534 18.5922C9.98232 19.3013 9.50213 19.9114 8.87646 20.3414C8.25079 20.7714 7.5092 21.0011 6.75 21Z" fill="#77B0FF"/>
</svg>
