<svg width="24" height="24" viewBox="0 0 24 24" fill="none" xmlns="http://www.w3.org/2000/svg">
<path d="M9.75 22.5C8.7558 22.4988 7.80267 22.1033 7.09966 21.4003C6.39666 20.6973 6.00119 19.7442 6 18.75H7.5C7.5 19.195 7.63196 19.63 7.87919 20C8.12643 20.37 8.47783 20.6584 8.88896 20.8287C9.3001 20.999 9.7525 21.0436 10.189 20.9568C10.6254 20.87 11.0263 20.6557 11.341 20.341C11.6557 20.0263 11.87 19.6254 11.9568 19.189C12.0436 18.7525 11.999 18.3001 11.8287 17.889C11.6584 17.4778 11.37 17.1264 11 16.8792C10.63 16.632 10.195 16.5 9.75 16.5H3V15H9.75C10.7446 15 11.6984 15.3951 12.4017 16.0983C13.1049 16.8016 13.5 17.7554 13.5 18.75C13.5 19.7446 13.1049 20.6984 12.4017 21.4017C11.6984 22.1049 10.7446 22.5 9.75 22.5Z" fill="#77B0FF"/>
<path d="M18.75 18.75C17.7558 18.7488 16.8027 18.3533 16.0997 17.6503C15.3967 16.9473 15.0012 15.9942 15 15H16.5C16.5 15.445 16.632 15.88 16.8792 16.25C17.1264 16.62 17.4778 16.9084 17.889 17.0787C18.3001 17.249 18.7525 17.2936 19.189 17.2068C19.6254 17.12 20.0263 16.9057 20.341 16.591C20.6557 16.2763 20.87 15.8754 20.9568 15.439C21.0436 15.0025 20.999 14.5501 20.8287 14.139C20.6584 13.7278 20.37 13.3764 20 13.1292C19.63 12.882 19.195 12.75 18.75 12.75H1.5V11.25H18.75C19.7446 11.25 20.6984 11.6451 21.4017 12.3484C22.1049 13.0516 22.5 14.0054 22.5 15C22.5 15.9946 22.1049 16.9484 21.4017 17.6517C20.6984 18.3549 19.7446 18.75 18.75 18.75ZM15.75 9H4.5V7.5H15.75C16.195 7.5 16.63 7.36804 17 7.12081C17.37 6.87358 17.6584 6.52217 17.8287 6.11104C17.999 5.69991 18.0436 5.24751 17.9568 4.81105C17.87 4.37459 17.6557 3.97368 17.341 3.65901C17.0263 3.34434 16.6254 3.13005 16.189 3.04323C15.7525 2.95642 15.3001 3.00098 14.889 3.17127C14.4778 3.34157 14.1264 3.62996 13.8792 3.99997C13.632 4.36998 13.5 4.80499 13.5 5.25H12C12 4.50832 12.2199 3.7833 12.632 3.16661C13.044 2.54993 13.6297 2.06928 14.3149 1.78545C15.0002 1.50162 15.7542 1.42736 16.4816 1.57206C17.209 1.71675 17.8772 2.0739 18.4017 2.59835C18.9261 3.1228 19.2833 3.79098 19.4279 4.51841C19.5726 5.24584 19.4984 5.99984 19.2145 6.68506C18.9307 7.37029 18.4501 7.95596 17.8334 8.36801C17.2167 8.78007 16.4917 9 15.75 9Z" fill="#77B0FF"/>
</svg>
