<svg width="50" height="50" viewBox="0 0 50 50" fill="none" xmlns="http://www.w3.org/2000/svg">
<path d="M40 6.66667H10C8.15835 6.66667 6.66669 8.15833 6.66669 10V40C6.66669 41.8417 8.15835 43.3333 10 43.3333H40C41.8417 43.3333 43.3334 41.8417 43.3334 40V10C43.3334 8.15833 41.8417 6.66667 40 6.66667ZM23.4 17.3333C20.8667 18.4167 18.9667 20.7333 18.4667 23.5167C16.6 23.95 15.0167 25.1833 14.1334 26.85C12.6167 25.6167 11.6667 23.75 11.6667 21.6667C11.6667 17.9833 14.65 15 18.3334 15C20.3667 15 22.1834 15.9 23.4 17.3333ZM38.3334 29.1667C38.3334 32.3883 35.7217 35 32.5 35H20C17.2384 35 15 32.7617 15 30C15 27.2383 17.2384 25 20 25C20 21.3183 22.985 18.3333 26.6667 18.3333C29.7917 18.3333 32.395 20.4933 33.1167 23.395C36.045 23.7083 38.3334 26.1567 38.3334 29.1667Z" fill="#77B0FF"/>
</svg>
