<svg width="80" height="80" viewBox="0 0 80 80" fill="none" xmlns="http://www.w3.org/2000/svg">
<path d="M40.0154 59.6694C50.5975 59.6694 59.176 51.0913 59.176 40.5097C59.176 29.9281 50.5975 21.35 40.0154 21.35C29.4333 21.35 20.8548 29.9281 20.8548 40.5097C20.8548 51.0913 29.4333 59.6694 40.0154 59.6694Z" fill="url(#paint0_linear_1_179)"/>
<path d="M58.0225 4.50086L53.5197 15.3721C52.052 18.9128 46.7407 16.7132 48.2084 13.1725L52.7111 2.30132C54.1788 -1.23939 59.4902 0.960145 58.0225 4.50086ZM31.7878 67.8313L27.285 78.7025C25.8173 82.2432 20.506 80.0437 21.9737 76.503L26.4764 65.6318C27.9441 62.0911 33.2555 64.2906 31.7878 67.8313ZM78.2024 27.7914L67.3307 32.2939C63.7898 33.7615 61.5902 28.4505 65.1311 26.9828L76.0028 22.4803C79.5437 21.0127 81.7433 26.3237 78.2024 27.7914ZM14.8689 54.0248L3.99722 58.5274C0.456336 59.995 -1.7433 54.6839 1.79758 53.2163L12.6693 48.7138C16.2102 47.2461 18.4098 52.5572 14.8689 54.0248ZM76.0028 58.5312L65.1311 54.0287C61.5902 52.561 63.7898 47.25 67.3307 48.7176L78.2024 53.2201C81.7433 54.6878 79.5437 59.9988 76.0028 58.5312ZM12.6693 32.2977L1.79758 27.7952C-1.7433 26.3276 0.456336 21.0165 3.99722 22.4841L14.8689 26.9867C18.4098 28.4543 16.2102 33.7654 12.6693 32.2977ZM27.2812 2.29749L31.7839 13.1687C33.2516 16.7094 27.9403 18.9089 26.4726 15.3682L21.9699 4.49702C20.5022 0.956313 25.8135 -1.24322 27.2812 2.29749ZM53.5159 65.6279L58.0186 76.4991C59.4863 80.0399 54.175 82.2394 52.7073 78.6987L48.2046 67.8275C46.7369 64.2868 52.0482 62.0872 53.5159 65.6279Z" fill="#FFB300"/>
<defs>
<linearGradient id="paint0_linear_1_179" x1="40.0154" y1="21.35" x2="40.0154" y2="59.1586" gradientUnits="userSpaceOnUse">
<stop stop-color="#FFC227"/>
<stop offset="1" stop-color="#FFB300"/>
</linearGradient>
</defs>
</svg>
